<svg height="512pt" viewBox="-86 0 512 512" width="512pt" xmlns="http://www.w3.org/2000/svg"><path d="m299.972656 299.914062h-259.375c-8.285156 0-15-6.714843-15-15 0-71.535156 33.464844-142.941406 61.539063-190.25 14.167969-23.875 30.25-46.945312 45.289062-64.964843 6.625-7.941407 12.851563-14.636719 18.011719-19.367188 8.003906-7.339843 13.753906-10.332031 19.847656-10.332031s11.84375 2.992188 19.847656 10.332031c5.15625 4.730469 11.382813 11.425781 18.011719 19.367188 15.035157 18.019531 31.121094 41.089843 45.285157 64.960937 28.074218 47.308594 61.539062 118.71875 61.539062 190.253906.003906 8.285157-6.714844 15-14.996094 15zm0 0" fill="#f5a96c"/><path d="m253.429688 94.660156c-14.167969-23.871094-30.25-46.941406-45.285157-64.960937-6.628906-7.941407-12.855469-14.640625-18.011719-19.367188-8.003906-7.339843-13.753906-10.332031-19.847656-10.332031v299.914062h129.6875c8.28125 0 15-6.714843 15-15 0-71.535156-33.46875-142.945312-61.542968-190.253906zm0 0" fill="#d98955"/><path d="m222.273438 97.765625c-7.554688-23.726563-16.136719-46.664063-24.164063-64.585937-3.597656-8.039063-6.851563-14.554688-9.667969-19.367188-2.671875-4.5625-7.515625-12.824219-16.542968-13.7226562-.53125-.0585938-1.070313-.0898438-1.613282-.0898438-.546875 0-1.085937.03125-1.617187.0898438-9.023438.8984372-13.871094 9.1601562-16.539063 13.7226562-2.816406 4.8125-6.070312 11.328125-9.671875 19.367188-8.023437 17.921874-16.605469 40.859374-24.160156 64.585937-14.875 46.707031-32.605469 117.089844-32.605469 187.148437 0 8.285157 6.714844 15 15 15 8.28125 0 15-6.714843 15-15 0-62.550781 15.351563-126.179687 28.230469-168.542968 3.847656-12.644532 7.6875-24.128906 11.363281-34.375v202.917968c0 8.285157 6.714844 15 15 15s15-6.714843 15-15v-202.917968c3.675782 10.246094 7.515625 21.726562 11.363282 34.375 12.878906 42.363281 28.230468 105.992187 28.230468 168.542968 0 8.28125 6.71875 15 15 15 8.285156 0 15-6.71875 15-15 0-70.058593-17.730468-140.441406-32.605468-187.148437zm0 0" fill="#d88955"/><path d="m222.273438 97.765625c-7.554688-23.726563-16.136719-46.664063-24.164063-64.585937-3.597656-8.039063-6.851563-14.554688-9.667969-19.367188-2.671875-4.5625-7.515625-12.824219-16.542968-13.7226562-.53125-.0585938-1.070313-.0898438-1.613282-.0898438v299.914062c8.28125 0 15-6.714843 15-15v-202.917968c3.675782 10.246094 7.515625 21.726562 11.359375 34.375 12.882813 42.363281 28.234375 105.992187 28.234375 168.542968 0 8.28125 6.714844 15 15 15s15-6.71875 15-15c0-70.058593-17.730468-140.441406-32.605468-187.148437zm0 0" fill="#ae6e3f"/><path d="m170.285156 512c-48.90625 0-92.605468-21.769531-123.042968-61.300781-30.90625-40.132813-47.242188-97.460938-47.242188-165.785157 0-8.285156 6.714844-15 15-15h310.566406c8.285156 0 15 6.714844 15 15 0 68.324219-16.335937 125.652344-47.242187 165.785157-30.4375 39.53125-74.132813 61.300781-123.039063 61.300781zm0 0" fill="#da7e4a"/><path d="m325.566406 269.914062h-155.28125v242.085938c48.90625 0 92.601563-21.769531 123.039063-61.300781 30.90625-40.132813 47.242187-97.460938 47.242187-165.785157 0-8.285156-6.714844-15-15-15zm0 0" fill="#cb6c35"/><path d="m76.125 342.074219c0 8.171875-6.625 14.796875-14.796875 14.796875s-14.796875-6.625-14.796875-14.796875 6.625-14.796875 14.796875-14.796875 14.796875 6.625 14.796875 14.796875zm0 0" fill="#a15427"/><path d="m158.757812 360.988281c0 8.171875-6.625 14.796875-14.796874 14.796875-8.171876 0-14.796876-6.625-14.796876-14.796875s6.625-14.796875 14.796876-14.796875c8.171874 0 14.796874 6.625 14.796874 14.796875zm0 0" fill="#a15427"/><path d="m254.496094 399.300781c0 8.171875-6.625 14.796875-14.796875 14.796875s-14.796875-6.625-14.796875-14.796875c0-8.175781 6.625-14.796875 14.796875-14.796875s14.796875 6.621094 14.796875 14.796875zm0 0" fill="#883f2e"/><path d="m133.664062 430.007812c0 8.171876-6.621093 14.796876-14.796874 14.796876-8.171876 0-14.796876-6.625-14.796876-14.796876 0-8.171874 6.625-14.796874 14.796876-14.796874 8.175781 0 14.796874 6.625 14.796874 14.796874zm0 0" fill="#a15427"/><path d="m294.136719 342.074219c0 8.171875-6.625 14.796875-14.796875 14.796875s-14.796875-6.625-14.796875-14.796875 6.625-14.796875 14.796875-14.796875 14.796875 6.625 14.796875 14.796875zm0 0" fill="#883f2e"/></svg>